<?xml version="1.0" standalone="no"?>
<!DOCTYPE svg PUBLIC "-//W3C//DTD SVG 20010904//EN"
 "http://www.w3.org/TR/2001/REC-SVG-20010904/DTD/svg10.dtd">
<svg version="1.0" xmlns="http://www.w3.org/2000/svg"
 width="340.000000pt" height="340.000000pt" viewBox="0 0 340.000000 340.000000"
 preserveAspectRatio="xMidYMid meet">
<metadata>
Created by potrace 1.14, written by Peter Selinger 2001-2017
</metadata>
<g transform="translate(0.000000,340.000000) scale(0.100000,-0.100000)"
fill="#000000" stroke="none">
<path d="M535 3386 c-165 -42 -305 -136 -408 -275 -48 -66 -102 -188 -116
-267 -7 -39 -11 -420 -11 -1153 1 -1229 -4 -1149 76 -1311 83 -167 224 -285
419 -351 l70 -24 1135 0 1135 0 80 28 c94 33 191 89 258 147 100 88 194 257
217 386 8 51 11 357 8 1179 l-3 1110 -34 85 c-80 199 -212 335 -401 413 -36
15 -85 31 -110 37 -72 15 -2252 12 -2315 -4z m1918 -1114 l127 -127 -566 -572
c-311 -315 -574 -575 -586 -579 -17 -5 -70 43 -320 292 -164 165 -297 304
-296 311 4 16 278 265 287 261 5 -2 80 -78 167 -170 87 -93 163 -168 169 -168
5 1 204 198 440 440 237 241 435 439 440 439 6 1 68 -56 138 -127z m-19 -1020
c88 -51 85 -186 -6 -242 -138 -84 -289 101 -177 216 53 55 116 64 183 26z"/>
</g>
</svg>
